<?xml version="1.0" encoding="UTF-8" standalone="no"?>
<svg xmlns="http://www.w3.org/2000/svg" viewBox="0 0 96 96" width="96" height="96">
  <circle cx="48" cy="48" r="46" fill="#12121a" stroke="#e63022" stroke-width="4"/>
  
  <!-- Ícone de lista de relatórios -->
  <g transform="translate(48, 48) scale(0.04)">
    <!-- Múltiplas folhas -->
    <rect x="-420" y="-500" width="800" height="1000" rx="40" ry="40" 
          fill="#4040bf" transform="rotate(-5)"/>
    <rect x="-380" y="-480" width="720" height="920" rx="20" ry="20" 
          fill="#232336" transform="rotate(-5)"/>
    
    <rect x="-400" y="-500" width="800" height="1000" rx="40" ry="40" 
          fill="#4040bf" transform="rotate(0)"/>
    <rect x="-360" y="-460" width="720" height="920" rx="20" ry="20" 
          fill="#1a1a25" transform="rotate(0)"/>
    
    <!-- Linhas do papel -->
    <g stroke="#e63022" stroke-width="16">
      <line x1="-300" y1="-300" x2="100" y2="-300"/>
      <line x1="-300" y1="-200" x2="300" y2="-200"/>
      <line x1="-300" y1="-100" x2="300" y2="-100"/>
      <line x1="-300" y1="0" x2="300" y2="0"/>
      <line x1="-300" y1="100" x2="300" y2="100"/>
      <line x1="-300" y1="200" x2="300" y2="200"/>
      <line x1="-300" y1="300" x2="300" y2="300"/>
    </g>
    
    <!-- Marca de verificação -->
    <path d="M 160,-340 L 220,-280 L 340,-400" 
          stroke="#4caf50" stroke-width="40" fill="none" stroke-linecap="round" stroke-linejoin="round"/>
  </g>
</svg>