<?xml version="1.0" encoding="UTF-8" standalone="no"?>
<svg xmlns="http://www.w3.org/2000/svg" viewBox="0 0 512 512" width="512" height="512">
  <circle cx="256" cy="256" r="248" fill="#12121a" stroke="#e63022" stroke-width="16"/>
  <g transform="translate(256, 256)">
    <!-- Teia de aranha estilizada -->
    <path d="M0,-200 L0,200 M-200,0 L200,0 M-150,-150 L150,150 M-150,150 L150,-150" 
          stroke="#4040bf" stroke-width="8" fill="none" opacity="0.6"/>
    
    <!-- Símbolo da aranha -->
    <g transform="scale(0.8)">
      <!-- Corpo da aranha -->
      <ellipse cx="0" cy="0" rx="60" ry="80" fill="#e63022"/>
      
      <!-- Pernas -->
      <path d="M-30,-50 C-80,-100 -120,-90 -160,-40" stroke="#e63022" stroke-width="10" fill="none"/>
      <path d="M30,-50 C80,-100 120,-90 160,-40" stroke="#e63022" stroke-width="10" fill="none"/>
      <path d="M-40,-20 C-100,-40 -140,-20 -180,30" stroke="#e63022" stroke-width="10" fill="none"/>
      <path d="M40,-20 C100,-40 140,-20 180,30" stroke="#e63022" stroke-width="10" fill="none"/>
      <path d="M-40,20 C-100,40 -140,60 -170,110" stroke="#e63022" stroke-width="10" fill="none"/>
      <path d="M40,20 C100,40 140,60 170,110" stroke="#e63022" stroke-width="10" fill="none"/>
      <path d="M-30,50 C-70,100 -100,130 -120,180" stroke="#e63022" stroke-width="10" fill="none"/>
      <path d="M30,50 C70,100 100,130 120,180" stroke="#e63022" stroke-width="10" fill="none"/>
    </g>
  </g>
</svg>